# xmcd
#
# Track frame offsets: 
#        151
#        13773
#        26920
#        39470
#        54113
#        68815
#        83984
#        98381
#        112167
#        126145
#        139802
#        152430
#        165397
#        179608
#        195172
#        210384
#        224776
#        237075
#        252157
#        264700
#
# Disc length: 3708 seconds
#
# Revision: 0
# Processed by: cddbd v1.5.2PL0 Copyright (c) Steve Scherf et al.
# Submitted via: ExactAudioCopy v0.99pb5
#
DISCID=110e7a14
DTITLE=Blind Willie McTell - King Of The Georgia Blues - Disk 4
DYEAR=2009
DGENRE=Blues
TTITLE0=We Got To Meet Death On Day
TTITLE1=We Got To Meet Death On Day
TTITLE2=Don't Let Nobody Turn You Around
TTITLE3=I Got Religion I'm So Glad
TTITLE4=Trick Ain't Walking No More
TTITLE5=Oh Lawdy Mama
TTITLE6=Two Faced Woman
TTITLE7=Early Morning Blues
TTITLE8=Fried Pie Blues
TTITLE9=Dying Gambler
TTITLE10=God Don't Like It
TTITLE11=Bell Street Blues
TTITLE12=Let Me Pay With Yo' Yo-Yo
TTITLE13=Lay Some Flowers On My Grave
TTITLE14=Ticket Agent Blues
TTITLE15=Cold Winter Day
TTITLE16=Your Time To Worry
TTITLE17=Cooling Board Blues
TTITLE18=Hillbilly Willies Blues
TTITLE19=Just As well Get Ready, You Got To Die-Climbing High Mountain
TTITLE19=s, Trying To Get Home
EXTD=
EXTT0=
EXTT1=
EXTT2=
EXTT3=
EXTT4=
EXTT5=
EXTT6=
EXTT7=
EXTT8=
EXTT9=
EXTT10=
EXTT11=
EXTT12=
EXTT13=
EXTT14=
EXTT15=
EXTT16=
EXTT17=
EXTT18=
EXTT19=
PLAYORDER=
